# xmcd
#
# Track frame offsets: 
#        150
#        14962
#        38460
#        55080
#        68152
#        84187
#        103982
#        124747
#        143765
#        162920
#        180047
#        199822
#
# Disc length: 2969 seconds
#
# Revision: 0
# Processed by: cddbd v1.5.1PL0 Copyright (c) Steve Scherf et al.
# Submitted via: ExactAudioCopy v0.95a5
#
DISCID=990b970c
DTITLE=Various Artist - Entertainment Weekly Greatest Hits Of 1992
DYEAR=2000
DGENRE=Pop/Rock
TTITLE0=Kris Kross - Jump
TTITLE1=Wreckx-N-Effect - Rump Shaker
TTITLE2=Technotronoc - Move This
TTITLE3=Right Said Fred - I'm Too Sexy
TTITLE4=Color Me Badd - All 4 Love
TTITLE5=Joe Public - Live And Learn
TTITLE6=Arrested Development - Tennessee
TTITLE7=PM Dawn - I'd Die Without You
TTITLE8=Annie Lennox - Walking On Broken Glass
TTITLE9=The Heights - How Do You Talk To An Angel
TTITLE10=Ugly Kid Joe - Everything About You
TTITLE11=R. Kelly And Public Announcement - Honey Love
EXTD=
EXTT0=
EXTT1=
EXTT2=
EXTT3=
EXTT4=
EXTT5=
EXTT6=
EXTT7=
EXTT8=
EXTT9=
EXTT10=
EXTT11=
PLAYORDER=
